          888    d8P         d8888 8888888b.  d8b 888b    888        d8888 
          888   d8P         d88888 888   Y88b Y8P 8888b   888       d88888 
          888  d8P         d88P888 888    888     88888b  888      d88P888 
          888d88K         d88P 888 888   d88P 888 888Y88b 888     d88P 888 
          8888888b       d88P  888 8888888P"  888 888 Y88b888    d88P  888 
          888  Y88b     d88P   888 888 T88b   888 888  Y88888   d88P   888 
          888   Y88b   d8888888888 888  T88b  888 888   Y8888  d8888888888 
          888    Y88b d88P     888 888   T88b 888 888    Y888 d88P     888 
              
           That.Hamilton.Woman.1941.CRITERION.DVDRip.x264.AC3-KARiNA.mkv       
                                                             
Synopsis.

That Hamilton Woman | UK | 1941 | Directed by Alexander Korda
                                  
One of cinema’s most dashing duos, real-life spouses Vivien Leigh and Laurence Olivier live their greatest on-screen romance in this visually dazzling tragic love story from legendary producer-director Alexander Korda. Set against the backdrop of the Napoleonic Wars of the late eighteenth century, That Hamilton Woman is a gripping account of the scandalous adulterous affair between the British Royal Navy officer Lord Horatio Nelson and the renowned beauty Emma, Lady Hamilton, the wife of a British ambassador. With its grandly designed sea battles and formidable star performances, That Hamilton Woman (Winston Churchill’s favorite movie, which he claimed to have seen over eighty times) brings history to vivid, glamorous life.

IMdB: http://www.imdb.com/title/tt0034272/ | Rating: 7.2 / 10 (889 votes)
                                     
General.
                                                                  
Complete name                    : That.Hamilton.Woman.1941.CRITERION.DVDRip.x264.AC3-KARiNA.mkv
Format                           : Matroska
File size                        : 1.82 GiB
Duration                         : 2h 5mn
Overall bit rate                 : 2 079 Kbps
Source                           : Criterion NTSC DVD9
                                       
Video.                       

Format                           : AVC
Bit rate                         : 1 461 Kbps
Nominal bit rate                 : 1 500 Kbps
Width                            : 664 pixels
Height                           : 448 pixels
Display aspect ratio             : 4/3
Frame rate                       : 23.976 fps
Resolution                       : 24 bits
Colorimetry                      : 4:2:0
Scan type                        : Progressive
Bits/(Pixel*Frame)               : 0.205
Stream size                      : 1.28 GiB (70%)
Title                            : Track 1
Writing library                  : x264 core 65

Audio.                      

Track 1

Format                           : AC-3
Bit rate mode                    : Constant
Bit rate                         : 384 Kbps
Channel(s)                       : 1 channel
Channel positions                : C
Sampling rate                    : 48.0 KHz
Stream size                      : 345 MiB (18%)
Title                            : Track 1
Language                         : English

Track 2 - Audio commentary featuring noted film historian Ian Christie

Format                           : AC-3
Bit rate mode                    : Constant
Bit rate                         : 192 Kbps
Channel(s)                       : 1 channel
Channel positions                : C
Sampling rate                    : 48.0 KHz
Stream size                      : 173 MiB (9%)
Title                            : Track 2 (Commentary)
Language                         : English

Chapters.

00:00:00.000                     : :Chapter 1
00:02:13.049                     : :Chapter 2
00:06:15.908                     : :Chapter 3
00:12:57.810                     : :Chapter 4
00:19:59.398                     : :Chapter 5
00:24:03.809                     : :Chapter 6
00:33:20.665                     : :Chapter 7
00:39:12.216                     : :Chapter 8
00:46:16.807                     : :Chapter 9
00:57:49.299                     : :Chapter 10
01:10:31.727                     : :Chapter 11
01:18:42.751                     : :Chapter 12
01:24:35.203                     : :Chapter 13
01:31:37.959                     : :Chapter 14
01:42:49.830                     : :Chapter 15
01:48:54.995                     : :Chapter 16
02:00:30.723                     : :Chapter 17
02:05:37.146                     : :Chapter 18

KARiNA.